<?xml version="1.0" encoding="UTF-8"?><svg id="Hand-drawn_Icon_Set" xmlns="http://www.w3.org/2000/svg" viewBox="0 0 500 500"><defs><style>.cls-1{fill:#fff;}.cls-2{fill:#b22626;}</style></defs><circle class="cls-2" cx="250" cy="250" r="245.87"/><path class="cls-1" d="m369.39,135.74h-59.21v-30.54c0-7.94-6.44-14.38-14.38-14.38h-91.61c-7.94,0-14.38,6.44-14.38,14.38v30.54h-59.21c-7.94,0-14.38,6.44-14.38,14.38s6.44,14.38,14.38,14.38h238.78c7.94,0,14.38-6.44,14.38-14.38s-6.44-14.38-14.38-14.38Zm-87.96,0h-62.86v-16.17h62.86v16.17Z"/><path class="cls-1" d="m351.07,175.93c-7.94,0-14.38,6.44-14.38,14.38v163.08c0,14.91-12.13,27.05-27.05,27.05h-119.29c-14.92,0-27.05-12.13-27.05-27.05v-163.08c0-7.94-6.44-14.38-14.38-14.38s-14.38,6.44-14.38,14.38v163.08c0,30.77,25.03,55.8,55.8,55.8h119.29c30.77,0,55.8-25.03,55.8-55.8v-163.08c0-7.94-6.44-14.38-14.38-14.38Z"/><path class="cls-1" d="m235.42,329.2v-108.16c0-7.94-6.44-14.38-14.38-14.38s-14.38,6.44-14.38,14.38v108.16c0,7.94,6.44,14.38,14.38,14.38s14.38-6.44,14.38-14.38Z"/><path class="cls-1" d="m293.34,329.2v-108.16c0-7.94-6.44-14.38-14.38-14.38s-14.38,6.44-14.38,14.38v108.16c0,7.94,6.44,14.38,14.38,14.38s14.38-6.44,14.38-14.38Z"/></svg>