<?xml version="1.0" encoding="UTF-8"?><svg id="Hand-drawn_Icon_Set" xmlns="http://www.w3.org/2000/svg" viewBox="0 0 500 500"><defs><style>.cls-1{fill:#fff;}.cls-2{fill:#215fc1;}</style></defs><circle class="cls-2" cx="250" cy="250" r="245.87"/><polygon class="cls-1" points="182.64 272.61 183.29 320.67 232.03 322 237.17 316.87 187.78 267.47 182.64 272.61"/><path class="cls-1" d="m376.71,177.5c9.34-9.34,8.48-19.07,4.42-31.51h0c-3.32-10.2-11.22-18.23-21.36-21.72l-.87-.3c-12.56-4.33-22.38-5.07-31.87,4.42l-6.12,6.11,49.39,49.39,6.4-6.39Z"/><rect class="cls-1" x="205.04" y="190.76" width="148" height="69.85" transform="translate(-77.88 263.19) rotate(-44.96)"/><path class="cls-1" d="m353.82,351.53h-203.06v-203.06h100.36l28.91-28.91h-124.58c-19.28,0-34.91,15.63-34.91,34.91v191.06c0,19.28,15.63,34.91,34.91,34.91h191.06c19.28,0,34.91-15.63,34.91-34.91v-117.28l-27.61,27.61v95.67Z"/></svg>