<?xml version="1.0" encoding="UTF-8"?><svg id="Hand-drawn_Icon_Set" xmlns="http://www.w3.org/2000/svg" viewBox="0 0 500 500"><defs><style>.cls-1{fill:#fff;}</style></defs><path class="cls-1" d="m345.16,234.42c1.99-6.67,3.07-13.73,3.07-21.04,0-40.53-32.86-73.39-73.39-73.39-27.79,0-51.96,15.44-64.42,38.21-6.97-3.92-15.02-6.17-23.59-6.17-26.63,0-48.22,21.59-48.22,48.22,0,4.99.76,9.8,2.17,14.33-27.36,7.17-47.55,32.06-47.55,61.66,0,35.2,28.54,63.74,63.74,63.74h77.15v-61.37h-26.17c-4.09,0-6.33-4.78-3.7-7.92l42.71-51.02c1.93-2.3,5.47-2.3,7.4,0l42.71,51.02c2.63,3.14.4,7.92-3.7,7.92h-26.17v61.37h84.88v-.52c30.86-3.97,54.71-30.34,54.71-62.28,0-34.29-27.48-62.16-61.62-62.78Z"/></svg>