<?xml version="1.0" encoding="utf-8"?>
<!-- Generator: Adobe Illustrator 20.1.0, SVG Export Plug-In . SVG Version: 6.00 Build 0)  -->
<svg version="1.1" id="Layer_1" xmlns="http://www.w3.org/2000/svg" xmlns:xlink="http://www.w3.org/1999/xlink" x="0px" y="0px"
	 viewBox="0 0 2484.6 244.6" style="enable-background:new 0 0 2484.6 244.6;" xml:space="preserve">
<style type="text/css">
	.st0{fill:#F47D2B;}
	.st1{fill:#636363;}
</style>
<path class="st0" d="M206.4,138.9c-7.5-12.3-27.7-36.1-60.8-71.3c-10.5-11-18-19.8-22.3-26.5c-4.4-6.7-6.6-12.3-6.6-16.9
	c0-3.8,1.8-7,5.4-9.4s8.1-3.6,13.7-3.6c9.1,0,18.6,1.9,28.6,5.7c0.3,0.2,0.6,0.2,0.9,0.4c7,3.3,13.4,7.7,19.2,13
	c8.6,7.9,13.9,17.4,15.9,28.7h2.6l2.2-55.2h-2.5c-0.7,3.1-1.8,5.3-3.1,6.5c-1.4,1.3-4.1,1.8-8.1,1.8c-2.2,0-4.9-0.3-8-0.9L173,7.9
	C159.6,2.6,145,0,129.5,0c-2.8,0-5.5,0.1-8.2,0.2C99.9,0.6,80,6.3,61.7,17.2c-18.9,11.3-34,26.5-45.1,45.8S0,103.1,0,125.6
	c0,15,2.6,29.5,8,43.6s13.2,26.9,23.5,38.1c5.7,6.2,12.2,11.8,19.3,16.6c0.7,0.5,1.3,0.9,2,1.4c18.7,12.9,40.6,19.2,65.5,19.2
	c26.9,0,49.8-5.6,68.4-16.8c9.8-5.8,17.5-13.3,23-22.5c5.5-9.1,8.3-18.7,8.3-29.1C218,164.3,214.1,151.8,206.4,138.9z M28.9,122.8
	c0-15.8,2.1-30.6,6.3-44.2c1.6,11.3,6.2,23,13.9,35.2c7.3,11.5,22,29.1,43.9,52.9c17.5,18.7,28.5,31.4,33.2,37.8
	c4.6,6.4,6.9,12.1,6.9,17.2c0,8-6.6,12.1-19.8,12.1c-2.7,0-5.4-0.2-8.1-0.5c-6.8-1.3-13.2-3.3-19.2-6.1c-11.5-5.2-21.7-13-30.3-23.2
	C47,193.9,40.4,181.9,35.8,168C31.1,154.1,28.9,139,28.9,122.8z"/>
<g>
	<path class="st1" d="M633.6,51.2c-4-7-8.9-13.2-14.6-18.8c-5.7-5.5-12-10.2-18.9-14c-6.9-3.8-14.2-6.8-21.8-8.9
		c-7.6-2.1-15.3-3.2-22.9-3.2c-8.9,0-17.4,1.2-25.4,3.5c-8.1,2.3-15.5,5.6-22.3,9.9l139.6,104c1.7,4.5,2.9,8.9,3.5,13.2
		c0.6,4.3,1,8.7,1,13.2c0,12.9-2.7,25.1-7.9,36.4c-5.3,11.3-12.5,21.2-21.6,29.6c-9.1,8.4-19.8,15-32,19.9
		c-12.2,4.9-25.3,7.3-39.3,7.3c-10,0-19.5-1.2-28.5-3.7c-9-2.4-17.4-5.9-25.1-10.5c-7.7-4.6-14.7-10-21-16.2
		c-6.3-6.3-11.4-13.2-15.4-20.8l6.7-4.1c7.6,14.6,18.8,26.4,33.5,35.3c14.7,8.9,31.3,13.4,49.8,13.4c12.7,0,24.6-2.2,35.6-6.5
		c11-4.3,20.7-10.2,28.9-17.6L461.2,97.3c-0.2-1.7-0.4-3.3-0.5-4.9c-0.1-1.6-0.2-3.2-0.2-4.9c0-12.3,2.5-23.7,7.5-34.3
		c5-10.6,11.8-19.9,20.4-27.8c8.6-7.9,18.6-14.2,30-18.8c11.4-4.6,23.7-6.8,36.9-6.8c9.3,0,18.2,1.2,26.7,3.5
		c8.5,2.3,16.4,5.6,23.7,9.9c7.3,4.2,13.9,9.3,19.9,15.3c5.9,5.9,10.8,12.5,14.6,19.7L633.6,51.2z M501.3,24.1
		c-10.2,7.4-18.1,16.6-23.8,27.5c-5.7,10.9-8.6,22.8-8.6,35.8c0,1.7,0,2.9,0,3.5c0,0.6,0.1,1.8,0.3,3.5l151.4,112.9
		c7.2-7.4,12.9-16,17-25.8c4.1-9.7,6.2-20.2,6.2-31.5c0-3.8-0.4-7.6-1.1-11.3c-0.7-3.7-1.6-7.5-2.7-11.3L501.3,24.1z"/>
	<path class="st1" d="M799.6,238.5H652.4c-1.9-0.2-3.4-1-4.6-2.2c-1.2-1.3-1-3.1,0.5-5.4L783.1-0.3c0.6-1.1,1.9-1.6,3.7-1.6
		c1.8,0,3,0.5,3.7,1.6L930,238.5H829.2l-88.4-151l-84.3,144.4h139.3L799.6,238.5z M786.5,8.6l-41.3,70.9l89,152.3h83L786.5,8.6z"/>
	<path class="st1" d="M947.1,106.2c0-20.1,2.8-36.7,8.3-49.8c5.5-13,13-23.8,22.6-32.3c8.3-7.8,17.8-13.9,28.6-18.1
		c10.8-4.2,22.3-6.4,34.3-6.4c11.4,0,22.4,2,32.8,5.9c10.4,3.9,19.7,9.3,28,16.1c7.6-7,16.3-12.4,26.1-16.2
		c9.7-3.8,20.1-5.7,31.2-5.7c11.9,0,23.2,2.2,33.9,6.5c10.7,4.3,20.1,10.5,28.3,18.6c8.2,8.1,14.6,17.9,19.4,29.6
		c4.8,11.7,7.2,24.9,7.2,39.7v144.4h-7.9V94.1c0-13.8-2.2-26.1-6.5-36.9c-4.3-10.8-10.2-20-17.6-27.5c-7.4-7.5-16-13.3-25.8-17.3
		c-9.8-4-20-6-30.8-6c-9.8,0-19.1,1.8-28,5.4c-8.9,3.6-16.9,8.6-23.8,14.9c8.9,9.1,15.8,19.9,20.7,32.3c4.9,12.4,7.3,28.3,7.3,47.5
		v132h-64.9V106.2c0-18.9,2.3-34.6,7-47.2c4.7-12.6,11-23.3,19.1-32c-7.4-6.6-15.8-11.7-25.3-15.3c-9.4-3.6-19.5-5.4-30.1-5.4h-2.2
		v232.1h-91.6V106.2z M955.1,231.8h75.7V7c-9.1,1.1-17.6,3.5-25.6,7.3c-7.9,3.8-15.3,8.8-22.1,14.9c-8.5,7.6-15.3,17.6-20.4,29.9
		c-5.1,12.3-7.6,28-7.6,47.1V231.8z M1078.1,231.8h49V106.5c0-18.4-2.2-33.6-6.5-45.5c-4.3-11.9-10.3-21.6-18-29.3h-1.3
		c-7.2,7.8-12.9,17.7-17,29.6c-4.1,11.9-6.2,26.8-6.2,44.8V231.8z"/>
	<path class="st1" d="M1489.6,6.3c-10,0-19.4,1.3-28.3,3.8v222.6c4.5,1.1,9.1,2,13.8,2.7c4.8,0.7,9.6,1.1,14.5,1.1
		c14,0,27.2-2.4,39.7-7.3c12.5-4.9,23.7-11.6,33.5-20c9.9-8.5,18.2-18.5,25-30c6.8-11.6,11.3-24,13.7-37.4l7.3,1.3
		c-2.5,14.2-7.4,27.4-14.6,39.6c-7.2,12.2-16.1,22.8-26.6,31.8c-10.5,9-22.4,16.1-35.8,21.1c-13.4,5.1-27.5,7.6-42.3,7.6
		c-16.7,0-32.5-3.2-47.2-9.5c-14.7-6.4-27.6-15-38.6-26.1c-11-11-19.7-24-26.1-38.8c-6.4-14.8-9.5-30.6-9.5-47.4
		c0-16.7,3.2-32.5,9.5-47.4c6.4-14.8,15-27.8,26.1-38.8c11-11,23.9-19.7,38.6-26.1c14.7-6.4,30.5-9.5,47.2-9.5
		c14.8,0,28.8,2.5,42,7.5c13.1,5,25,11.9,35.5,20.7c10.5,8.8,19.3,19.1,26.4,31c7.1,11.9,12.1,24.8,15.1,38.8l-7,1.6
		c-2.5-13.4-7.2-25.7-14-37c-6.8-11.3-15.1-21.1-25-29.4c-9.9-8.3-21-14.7-33.4-19.4C1516.8,8.7,1503.6,6.3,1489.6,6.3z
		 M1376.1,121.4c0,12.7,1.9,24.8,5.7,36.3c3.8,11.4,9.1,21.9,15.9,31.5c6.8,9.5,14.9,17.9,24.5,25c9.5,7.1,19.9,12.6,31.2,16.4V12.4
		c-11.2,3.8-21.6,9.3-31.2,16.4c-9.5,7.1-17.7,15.4-24.5,25c-6.8,9.5-12.1,20-15.9,31.5C1378,96.6,1376.1,108.7,1376.1,121.4z"/>
	<path class="st1" d="M1851.2,121.4h-130.4v117h-89.4V4.4h89.4v110.3h130.4V4.4h7.9v234h-7.9V121.4z M1639.7,231.8h73.1V11.1h-73.1
		V231.8z"/>
	<path class="st1" d="M2031.8,238.5h-147.2c-1.9-0.2-3.4-1-4.6-2.2c-1.2-1.3-1-3.1,0.5-5.4L2015.2-0.3c0.6-1.1,1.9-1.6,3.7-1.6
		c1.8,0,3,0.5,3.7,1.6l139.6,238.8h-100.8l-88.4-151l-84.3,144.4H2028L2031.8,238.5z M2018.7,8.6l-41.3,70.9l89,152.3h83L2018.7,8.6
		z"/>
	<path class="st1" d="M2142.1,121.4c0-16.7,3.2-32.5,9.5-47.4c6.4-14.8,15-27.8,26.1-38.8c11-11,23.9-19.7,38.6-26.1
		c14.7-6.4,30.5-9.5,47.2-9.5c16.7,0,32.5,3.2,47.4,9.5c14.8,6.4,27.8,15.1,38.8,26.1c11,11,19.7,24,26.1,38.8
		c6.4,14.8,9.5,30.6,9.5,47.4c0,16.7-3.2,32.5-9.5,47.4c-6.4,14.8-15.1,27.8-26.1,38.8c-11,11-24,19.7-38.8,26.1
		c-14.8,6.4-30.6,9.5-47.4,9.5c-16.7,0-32.5-3.2-47.2-9.5c-14.7-6.4-27.6-15-38.6-26.1c-11-11-19.7-24-26.1-38.8
		C2145.3,154,2142.1,138.2,2142.1,121.4z M2150.1,121.4c0,12.7,1.9,24.8,5.7,36.3c3.8,11.4,9.1,21.9,15.9,31.5
		c6.8,9.5,14.9,17.9,24.5,25c9.5,7.1,19.9,12.6,31.2,16.4V12.4c-11.2,3.8-21.6,9.3-31.2,16.4c-9.5,7.1-17.7,15.4-24.5,25
		c-6.8,9.5-12.1,20-15.9,31.5C2152,96.6,2150.1,108.7,2150.1,121.4z M2263.6,6.3c-10,0-19.4,1.3-28.3,3.8v222.6
		c4.5,1.1,9.1,2,13.8,2.7c4.8,0.7,9.6,1.1,14.5,1.1c15.7,0,30.5-3,44.4-9.1c13.9-6,26-14.3,36.3-24.6c10.3-10.4,18.4-22.6,24.3-36.6
		c5.9-14,8.9-28.9,8.9-44.8c0-15.9-3-30.8-8.9-44.8c-5.9-14-14-26.2-24.3-36.6c-10.3-10.4-22.4-18.6-36.3-24.6
		C2294.1,9.3,2279.3,6.3,2263.6,6.3z"/>
</g>
</svg>
